<svg width="120" height="117" viewBox="0 0 120 117" fill="none" xmlns="http://www.w3.org/2000/svg">
<rect width="120" height="117" rx="30" fill="#09697E"/>
<path d="M7 84.75V77.8594C7 74.724 8.60417 72.1719 11.8125 70.2031C15.0208 68.2344 19.25 67.25 24.5 67.25C25.4479 67.25 26.3594 67.2682 27.2344 67.3047C28.1094 67.3411 28.9479 67.4323 29.75 67.5781C28.7292 69.1094 27.9635 70.7135 27.4531 72.3906C26.9427 74.0677 26.6875 75.8177 26.6875 77.6406V84.75H7ZM33.25 84.75V77.6406C33.25 75.3073 33.888 73.1745 35.1641 71.2422C36.4401 69.3099 38.2448 67.6146 40.5781 66.1562C42.9115 64.6979 45.7005 63.6042 48.9453 62.875C52.1901 62.1458 55.7083 61.7812 59.5 61.7812C63.3646 61.7812 66.9193 62.1458 70.1641 62.875C73.4089 63.6042 76.1979 64.6979 78.5312 66.1562C80.8646 67.6146 82.651 69.3099 83.8906 71.2422C85.1302 73.1745 85.75 75.3073 85.75 77.6406V84.75H33.25ZM92.3125 84.75V77.6406C92.3125 75.7448 92.0755 73.9583 91.6016 72.2813C91.1276 70.6042 90.4167 69.0365 89.4688 67.5781C90.2708 67.4323 91.0911 67.3411 91.9297 67.3047C92.7682 67.2682 93.625 67.25 94.5 67.25C99.75 67.25 103.979 68.2161 107.188 70.1484C110.396 72.0807 112 74.651 112 77.8594V84.75H92.3125ZM42.5469 76H76.5625C75.8333 74.5417 73.8099 73.2656 70.4922 72.1719C67.1745 71.0781 63.5104 70.5312 59.5 70.5312C55.4896 70.5312 51.8255 71.0781 48.5078 72.1719C45.1901 73.2656 43.2031 74.5417 42.5469 76ZM24.5 62.875C22.0938 62.875 20.0339 62.0182 18.3203 60.3047C16.6068 58.5911 15.75 56.5312 15.75 54.125C15.75 51.6458 16.6068 49.5677 18.3203 47.8906C20.0339 46.2135 22.0938 45.375 24.5 45.375C26.9792 45.375 29.0573 46.2135 30.7344 47.8906C32.4115 49.5677 33.25 51.6458 33.25 54.125C33.25 56.5312 32.4115 58.5911 30.7344 60.3047C29.0573 62.0182 26.9792 62.875 24.5 62.875ZM94.5 62.875C92.0938 62.875 90.0339 62.0182 88.3203 60.3047C86.6068 58.5911 85.75 56.5312 85.75 54.125C85.75 51.6458 86.6068 49.5677 88.3203 47.8906C90.0339 46.2135 92.0938 45.375 94.5 45.375C96.9792 45.375 99.0573 46.2135 100.734 47.8906C102.411 49.5677 103.25 51.6458 103.25 54.125C103.25 56.5312 102.411 58.5911 100.734 60.3047C99.0573 62.0182 96.9792 62.875 94.5 62.875ZM59.5 58.5C55.8542 58.5 52.7552 57.224 50.2031 54.6719C47.651 52.1198 46.375 49.0208 46.375 45.375C46.375 41.6562 47.651 38.5391 50.2031 36.0234C52.7552 33.5078 55.8542 32.25 59.5 32.25C63.2188 32.25 66.3359 33.5078 68.8516 36.0234C71.3672 38.5391 72.625 41.6562 72.625 45.375C72.625 49.0208 71.3672 52.1198 68.8516 54.6719C66.3359 57.224 63.2188 58.5 59.5 58.5ZM59.5 49.75C60.7396 49.75 61.7786 49.3307 62.6172 48.4922C63.4557 47.6536 63.875 46.6146 63.875 45.375C63.875 44.1354 63.4557 43.0964 62.6172 42.2578C61.7786 41.4193 60.7396 41 59.5 41C58.2604 41 57.2214 41.4193 56.3828 42.2578C55.5443 43.0964 55.125 44.1354 55.125 45.375C55.125 46.6146 55.5443 47.6536 56.3828 48.4922C57.2214 49.3307 58.2604 49.75 59.5 49.75Z" fill="#FEF7FF"/>
</svg>
