<svg width="79" height="79" viewBox="0 0 79 79" fill="none" xmlns="http://www.w3.org/2000/svg">
<g clip-path="url(#clip0_78_36)">
<path d="M32.2976 45.4466C29.3479 41.9313 27.1495 37.8745 25.7023 33.2761C24.2552 28.6777 23.8343 23.8654 24.4397 18.8393C24.4972 18.1818 24.7643 17.6531 25.2409 17.2532C25.7176 16.8532 26.2846 16.682 26.9421 16.7395L34.4134 17.476C35.0161 17.5287 35.5136 17.7586 35.9058 18.1655C36.2981 18.5725 36.5101 19.0672 36.542 19.6497L36.9591 28.1329C36.9804 28.5212 36.9218 28.8749 36.7835 29.1941C36.6451 29.5132 36.427 29.7978 36.1291 30.0477L31.0349 34.3223C31.6273 35.7543 32.3192 37.1536 33.1106 38.5202C33.9019 39.8868 34.8226 41.1957 35.8724 42.4469C36.9223 43.6981 38.0515 44.832 39.2599 45.8487C40.4683 46.8653 41.7262 47.7897 43.0336 48.6218L48.1278 44.3472C48.4257 44.0973 48.7438 43.9319 49.0821 43.851C49.4205 43.7702 49.779 43.774 50.1577 43.8623L58.4396 45.7463C59.0077 45.8788 59.4581 46.1735 59.7907 46.6305C60.1234 47.0874 60.2634 47.6172 60.2106 48.2199L59.6385 55.7057C59.581 56.3631 59.3139 56.8918 58.8373 57.2918C58.3606 57.6917 57.7936 57.8629 57.1361 57.8054C52.1063 57.5586 47.4464 56.3159 43.1567 54.0774C38.867 51.8388 35.2472 48.9619 32.2976 45.4466Z" fill="#FEF7FF"/>
</g>
<defs>
<clipPath id="clip0_78_36">
<rect width="56" height="56" fill="white" transform="translate(35.9961 78.8946) rotate(-130)"/>
</clipPath>
</defs>
</svg>
